<svg xmlns="http://www.w3.org/2000/svg" xmlns:xlink="http://www.w3.org/1999/xlink" width="567.532" height="252" viewBox="0 0 567.532 252">
  <defs>
    <linearGradient id="linear-gradient" x1="0.5" y1="0.097" x2="0.5" y2="1" gradientUnits="objectBoundingBox">
      <stop offset="0" stop-color="#fff"/>
      <stop offset="1"/>
    </linearGradient>
  </defs>
  <g id="banner_image" transform="translate(-617.207 -148)">
    <path id="합치기_2" data-name="합치기 2" d="M0,126C0,56.411,60.219,0,134.5,0c71.887,0,130.6,52.83,134.313,119.311A72.226,72.226,0,0,1,321.5,97c38.937,0,70.5,29.772,70.5,66.5S360.437,230,321.5,230c-31.562,0-58.28-19.565-67.268-46.538C231.934,224.159,186.689,252,134.5,252,60.219,252,0,195.588,0,126Z" transform="translate(725.999 148)" opacity="0.07" fill="url(#linear-gradient)"/>
    <g id="그룹_82" data-name="그룹 82" transform="translate(734.25 207.987)">
      <g id="패스_381" data-name="패스 381" transform="translate(111.316 127.597)" fill="#fff" stroke-linecap="round" stroke-linejoin="round">
        <path d="M 11.05299758911133 62.82729339599609 L 10.91119766235352 62.77983093261719 L -33.61556243896484 47.87829208374023 L -33.43048095703125 46.41895294189453 L 78.31903839111328 38.51165390014648 L 78.46820068359375 38.50109100341797 L 78.61000061035156 38.54855346679688 L 123.1367568969727 53.45009231567383 L 122.9516754150391 54.90943145751953 L 11.20215702056885 62.81673049926758 L 11.05299758911133 62.82729339599609 Z" stroke="none"/>
        <path d="M 78.37197113037109 39.2597541809082 L -33.37754821777344 47.16706848144531 L 11.14920043945313 62.06860733032227 L 122.8987274169922 54.16131591796875 L 78.37197113037109 39.2597541809082 M 78.37197875976563 37.75976181030273 C 78.53357696533203 37.75976181030273 78.69432067871094 37.78587341308594 78.84801483154297 37.83729553222656 L 123.3747634887695 52.73885726928711 C 124.0531387329102 52.96590042114258 124.476806640625 53.640380859375 124.3868103027344 54.35004806518555 C 124.2968063354492 55.05971145629883 123.7181854248047 55.60708618164063 123.0045928955078 55.65756607055664 L 11.25507354736328 63.56485748291016 C 11.21979522705078 63.56735610961914 11.18446350097656 63.56859970092773 11.14919281005859 63.56859970092773 C 10.98759460449219 63.56859970092773 10.82685089111328 63.5424919128418 10.67315673828125 63.49106597900391 L -33.85359191894531 48.58952713012695 C -34.53196716308594 48.36248397827148 -34.95563507080078 47.68800354003906 -34.86563110351563 46.97833633422852 C -34.775634765625 46.26867294311523 -34.19700622558594 45.72129821777344 -33.48342132568359 45.67081832885742 L 78.26609802246094 37.76350402832031 C 78.30137634277344 37.76100921630859 78.33671569824219 37.75976181030273 78.37197875976563 37.75976181030273 Z" stroke="none" fill="#000"/>
      </g>
      <g id="그룹_77" data-name="그룹 77" transform="translate(87.178 174.181)">
        <path id="패스_392" data-name="패스 392" d="M-33.378,39.876l8.711-.616,3.471,1.162-8.711.616Z" transform="translate(34.023 -38.371)" stroke="#000" stroke-linecap="round" stroke-linejoin="round" stroke-width="1.5"/>
        <path id="패스_393" data-name="패스 393" d="M-33.378,39.876l8.711-.616,3.471,1.162-8.711.616Z" transform="translate(40.284 -36.068)" stroke="#000" stroke-linecap="round" stroke-linejoin="round" stroke-width="1.5"/>
        <path id="패스_394" data-name="패스 394" d="M-33.378,39.876l8.711-.616,3.471,1.162-8.711.616Z" transform="translate(33.378 -38.371)" stroke="#000" stroke-linecap="round" stroke-linejoin="round" stroke-width="1.5"/>
        <path id="패스_395" data-name="패스 395" d="M-33.378,39.876l8.711-.616,3.471,1.162-8.711.616Z" transform="translate(47.192 -33.766)" stroke="#000" stroke-linecap="round" stroke-linejoin="round" stroke-width="1.5"/>
        <path id="패스_396" data-name="패스 396" d="M-33.378,39.876l8.711-.616,3.471,1.162-8.711.616Z" transform="translate(54.1 -31.464)" stroke="#000" stroke-linecap="round" stroke-linejoin="round" stroke-width="1.5"/>
        <path id="패스_397" data-name="패스 397" d="M-33.378,39.876l8.711-.616,3.471,1.162-8.711.616Z" transform="translate(52.467 -36.957)" stroke="#000" stroke-linecap="round" stroke-linejoin="round" stroke-width="1.5"/>
        <path id="패스_398" data-name="패스 398" d="M-33.378,39.876l8.711-.616,3.471,1.162-8.711.616Z" transform="translate(45.561 -39.26)" stroke="#000" stroke-linecap="round" stroke-linejoin="round" stroke-width="1.5"/>
        <path id="패스_399" data-name="패스 399" d="M-33.378,39.876l8.711-.616,3.471,1.162-8.711.616Z" transform="translate(59.375 -34.655)" stroke="#000" stroke-linecap="round" stroke-linejoin="round" stroke-width="1.5"/>
        <path id="패스_400" data-name="패스 400" d="M-33.378,39.876l8.711-.616,3.471,1.162-8.711.616Z" transform="translate(66.282 -32.353)" stroke="#000" stroke-linecap="round" stroke-linejoin="round" stroke-width="1.5"/>
      </g>
      <g id="그룹_4" data-name="그룹 4">
        <path id="패스_235" data-name="패스 235" d="M-56.76,933.27s-20.6,2.789-33.88,14.873-19.815,25.216-18.962,41.445,20.692,39.825,64.748,35.812a729.339,729.339,0,0,0,83.3-12.845l11.957-7.289-5.931-31.879s-8.735-21.7-32.284-31.687A113,113,0,0,0-34.33,933.27Z" transform="translate(109.676 -853.222)" fill="#d9d9d9"/>
        <path id="패스_233" data-name="패스 233" d="M-110.918,1243.709c19.121,1.622,23.731,21.984,23.731,36.41s-.735,26.059-12.638,33.251-38.675,1.321-38.675-12.895c0-3.066-11.124-20.148-6.72-34.981S-130.039,1242.087-110.918,1243.709Z" transform="translate(191.507 -1241.94)" fill="#fff" stroke="#000" stroke-linecap="round" stroke-width="1.5"/>
        <path id="arm-line" d="M0,0C12.906,2.57,30.606,14.319,30.606,14.319S50.855,1.069,84.077,5.107" transform="translate(32.405 122.688) rotate(14)" fill="none" stroke="#000" stroke-linecap="round" stroke-width="1.5"/>
        <path id="패스_377" data-name="패스 377" d="M-896.009,1145.446v23.314s2.471,5.9,12.071,6.308,11.245-5.074,11.245-5.074l.307-8.274" transform="translate(948.926 -1087.014)" fill="#fff" stroke="#000" stroke-linecap="round" stroke-width="1.5"/>
        <path id="패스_379" data-name="패스 379" d="M-893.527,1160.651l2.246-12.9,1.163-.357-.234,1.31s.231,1.223.234,1.2c0,0,.591-10.864,7.212-17.184s12.036-8.067,21.9-8.067,18.749,5.789,18.749,5.789,5.088-13.32-6.615-22.721-22.774-5.2-22.774-5.2-20.153-4.986-30.507,16.693S-893.527,1160.651-893.527,1160.651Z" transform="translate(945.982 -1101.591)" fill="#fff" stroke="#000" stroke-linecap="round" stroke-linejoin="round" stroke-width="1.5"/>
        <path id="패스_376" data-name="패스 376" d="M11.15,1.776S2.834-3.648.07,4.148,9.293,14.98,9.293,14.98" transform="translate(44.415 44.524)" fill="#fff" stroke="#000" stroke-linecap="round" stroke-width="1.5"/>
        <path id="패스_246" data-name="패스 246" d="M0,0C3.929,9.32,1.637,20.034,1.637,20.034" transform="translate(117.981 122.171) rotate(-22)" fill="none" stroke="#000" stroke-linecap="round" stroke-width="1.5"/>
        <path id="패스_378" data-name="패스 378" d="M-899.725,1134.6" transform="translate(947.685 -1090.638)" fill="none" stroke="#000" stroke-width="1.5"/>
        <g id="그룹_75" data-name="그룹 75" transform="matrix(0.996, -0.087, 0.087, 0.996, 86.973, 144.583)">
          <path id="패스_382" data-name="패스 382" d="M15.02.454C.429,3.921-1.051,16.156.475,22.215s7.56,7.2,6.958.453,2.079-5.512,2.079-5.512a67.279,67.279,0,0,1,4.569,8.726c1.839,4.413-.6,8.474,3.424,9.073s5.046-6.338,5.046-6.338-1.967,10.5,2.548,9.561,5.36-9.023,5.36-9.023-.805,9.53,3.387,8.722,4.551-15.643,3.8-19.56S29.612-3.013,15.02.454Z" transform="matrix(0.985, -0.174, 0.174, 0.985, 0, 6.591)" fill="#fff" stroke="#000" stroke-linecap="round" stroke-linejoin="round" stroke-width="1.5"/>
          <path id="패스_383" data-name="패스 383" d="M5.348,12.049C4.279,3.134,0,0,0,0" transform="translate(21.765 19.655)" fill="none" stroke="#000" stroke-linecap="round" stroke-width="1.5"/>
          <path id="패스_384" data-name="패스 384" d="M5.169,13.1C4.1,4.189,0,0,0,0" transform="translate(29.898 17.704)" fill="none" stroke="#000" stroke-linecap="round" stroke-width="1.5"/>
        </g>
      </g>
      <path id="패스_380" data-name="패스 380" d="M0,1.168,111.75-6.739V69.527L0,77.434Z" transform="translate(122.467 112.697)" fill="#fff" stroke="#000" stroke-linecap="round" stroke-linejoin="round" stroke-width="1.5"/>
      <path id="패스_385" data-name="패스 385" d="M0,0C5.153,1.132,4.6,5.567,4.6,5.567" transform="translate(49.204 49.255) rotate(-9)" fill="none" stroke="#000" stroke-linecap="round" stroke-width="1.5"/>
      <path id="패스_386" data-name="패스 386" d="M0,0A3.322,3.322,0,0,1,1.971,2.554" transform="translate(49.954 52.566) rotate(-90)" fill="none" stroke="#000" stroke-linecap="round" stroke-width="1.5"/>
      <path id="패스_387" data-name="패스 387" d="M10386.934-3479.5c6.766,1.677,8.5,1.257,8.5,1.257" transform="translate(-10316.98 3552.773)" fill="none" stroke="#000" stroke-linecap="round" stroke-width="1.5"/>
      <path id="패스_388" data-name="패스 388" d="M-22.214,2.656,33.01-1.316V12.677l-55.224,3.972Z" transform="translate(196.691 75.237)" fill="#585858"/>
      <path id="패스_389" data-name="패스 389" d="M-22.214.993,9.89-1.316V6.819l-32.1,2.309Z" transform="translate(184.504 64.793)" fill="#585858"/>
      <path id="패스_390" data-name="패스 390" d="M-22.214,1.824,21.45-1.316V9.748l-43.664,3.14Z" transform="translate(196.691 46.78)" fill="#585858"/>
      <path id="패스_391" data-name="패스 391" d="M-22.214.059-3.092-1.316V3.529L-22.214,4.9Z" transform="translate(230.794 93.41)" fill="#585858"/>
      <path id="패스_401" data-name="패스 401" d="M10431.555-3486.141s5.039-5.442,13.705-3.023" transform="translate(-10365.46 3528.033)" fill="none" stroke="#000" stroke-linecap="round" stroke-width="1.5"/>
      <path id="패스_402" data-name="패스 402" d="M0,3.643S5.039-1.8,13.7.62" transform="matrix(0.985, 0.174, -0.174, 0.985, 91.69, 33.785)" fill="none" stroke="#000" stroke-linecap="round" stroke-width="1.5"/>
      <circle id="타원_10" data-name="타원 10" cx="3" cy="3" r="3" transform="translate(74.452 43.012)"/>
      <ellipse id="타원_12" data-name="타원 12" cx="5.5" cy="5" rx="5.5" ry="5" transform="translate(174.452 144.013)"/>
      <circle id="타원_13" data-name="타원 13" cx="3" cy="3" r="3" transform="translate(92.452 41.013)"/>
    </g>
    <g id="그룹_83" data-name="그룹 83" transform="translate(1028.87 320.579)">
      <g id="패스_412" data-name="패스 412" transform="translate(3.1 34.524)" fill="#fff">
        <path d="M 18.46673011779785 28.54199600219727 L 18.45973014831543 28.54199600219727 C 10.5391845703125 28.54199600219727 5.078431606292725 26.74321556091309 3.833911180496216 26.29205513000488 L 0.5673226714134216 0.4999964535236359 L 35.61169815063477 0.4999964535236359 L 32.62998199462891 26.30235481262207 C 32.12912368774414 26.49797439575195 30.91720008850098 26.93556022644043 29.09291076660156 27.36894607543945 C 26.84176063537598 27.90374565124512 23.17086029052734 28.5413761138916 18.46673011779785 28.54199600219727 Z" stroke="none"/>
        <path d="M 1.1346435546875 0.9999961853027344 L 4.291177749633789 25.92316055297852 C 5.917524337768555 26.48180389404297 11.11811447143555 28.04199600219727 18.45973014831543 28.04199600219727 L 18.46667098999023 28.04199600219727 C 25.75925827026367 28.0410270690918 30.63185691833496 26.50325965881348 32.16835784912109 25.94143104553223 L 35.05058670043945 0.9999961853027344 L 1.1346435546875 0.9999961853027344 M 0 -3.814697265625e-06 L 36.17280197143555 -3.814697265625e-06 L 33.09271240234375 26.65364646911621 C 33.09271240234375 26.65364646911621 27.70019149780273 29.0407657623291 18.46680068969727 29.04199600219727 C 18.46454620361328 29.04199600219727 18.46198654174805 29.04199600219727 18.45973205566406 29.04199600219727 C 9.230234146118164 29.04199600219727 3.375701904296875 26.65364646911621 3.375701904296875 26.65364646911621 L 0 -3.814697265625e-06 Z" stroke="none" fill="#000"/>
      </g>
      <g id="패스_414" data-name="패스 414" transform="translate(1.686 25.677)" fill="#fff" stroke-linecap="round">
        <path d="M 0.5 11.38276100158691 L 0.5 2.390816211700439 C 2.145592927932739 2.00173020362854 9.159866333007813 0.5025157928466797 19.50793075561523 0.4999968707561493 L 19.53422927856445 0.4999968707561493 C 29.87689590454102 0.4999968707561493 36.85971069335938 2.000130414962769 38.5 2.390238523483276 L 38.5 11.38257884979248 C 36.20774459838867 10.91315078735352 27.81475257873535 9.320066452026367 19.50781059265137 9.320066452026367 C 11.19976043701172 9.320066452026367 2.794175148010254 10.91359424591064 0.5 11.38276100158691 Z" stroke="none"/>
        <path d="M 1 10.77284717559814 C 3.942829608917236 10.19549942016602 11.76701164245605 8.820066452026367 19.50781059265137 8.820066452026367 C 27.24695777893066 8.820066452026367 35.05964660644531 10.19489860534668 38 10.77249908447266 L 38 2.788113594055176 C 35.85023880004883 2.305216312408447 29.14885520935059 0.9999969005584717 19.53422927856445 0.9999969005584717 L 19.5080509185791 0.9999969005584717 C 9.877870559692383 1.002340197563171 3.155072212219238 2.306907653808594 1 2.788935899734497 L 1 10.77284717559814 M 39 11.99902725219727 C 39 11.99902725219727 29.25781059265137 9.820066452026367 19.50781059265137 9.820066452026367 C 9.757809638977051 9.820066452026367 0 11.99902725219727 0 11.99902725219727 L 0 1.999026894569397 C 0 1.999026894569397 7.460939884185791 0.002926874905824661 19.50781059265137 -3.12499992105586e-06 C 19.51663398742676 -5.270996098261094e-06 19.52541160583496 -6.328124982246663e-06 19.53423118591309 -6.328124982246663e-06 C 31.56554985046387 -6.328124982246663e-06 39 1.999026894569397 39 1.999026894569397 L 39 11.99902725219727 Z" stroke="none" fill="#000"/>
      </g>
      <g id="패스_413" data-name="패스 413" transform="translate(1.686 28.677)" fill="#fff" stroke-linecap="round">
        <path d="M 19.50781059265137 11.49902153015137 C 11.02081203460693 11.49902153015137 2.429152727127075 9.956421852111816 0.5 9.588238716125488 L 0.5 0.6474810242652893 C 1.323054194450378 0.8519390821456909 2.919613122940063 1.216185331344604 5.168310165405273 1.58355176448822 C 8.230600357055664 2.083821773529053 13.1230297088623 2.680181741714478 19.04014015197754 2.680181741714478 C 19.19675064086914 2.680181741714478 19.35243034362793 2.679771661758423 19.51042938232422 2.67894172668457 C 29.23042869567871 2.628014326095581 36.40091705322266 1.130150079727173 38.5 0.6377617120742798 L 38.5 9.58833122253418 C 36.57227325439453 9.956645965576172 27.99063873291016 11.49902153015137 19.50781059265137 11.49902153015137 Z" stroke="none"/>
        <path d="M 38 1.268514633178711 C 35.32241821289063 1.865412712097168 28.59326934814453 3.131366729736328 19.51302909851074 3.17894172668457 C 19.35416030883789 3.179771423339844 19.1976203918457 3.180181503295898 19.04014015197754 3.180181503295898 C 13.08949089050293 3.180181503295898 8.168249130249023 2.58027172088623 5.087688446044922 2.077012062072754 C 3.297008514404297 1.784472465515137 1.913284301757813 1.493009567260742 1 1.281329154968262 L 1 9.173416137695313 C 3.513336181640625 9.63795280456543 11.55710029602051 10.99902153015137 19.50781059265137 10.99902153015137 C 27.45121002197266 10.99902153015137 35.4880485534668 9.638162612915039 38 9.17353343963623 L 38 1.268514633178711 M 0 1.9073486328125e-06 C 0 1.9073486328125e-06 7.650396347045898 2.180176734924316 19.04014205932617 2.180176734924316 C 19.19587516784668 2.180176734924316 19.35068702697754 2.179775238037109 19.50781059265137 2.178951263427734 C 31.15625 2.117921829223633 39 1.9073486328125e-06 39 1.9073486328125e-06 L 39 10.00000190734863 C 39 10.00000190734863 29.25780868530273 11.99902153015137 19.50781059265137 11.99902153015137 C 9.757810592651367 11.99902153015137 0 10.00000190734863 0 10.00000190734863 L 0 1.9073486328125e-06 Z" stroke="none" fill="#000"/>
      </g>
      <path id="패스_415" data-name="패스 415" d="M10562.229-4027.167a107.434,107.434,0,0,0-12.255.818l12.255,1.039,12.035-1.039A101.2,101.2,0,0,0,10562.229-4027.167Z" transform="translate(-10540.934 4056.987)"/>
      <path id="패스_416" data-name="패스 416" d="M10560.39-4026.059l-1.1-20.254s5.391.966,9.728-1.093,7.466-7.143,7.466-7.143-5.876-3.206-10.46-1.751-7.878,7.572-7.878,7.572a13.69,13.69,0,0,0-7.7-5.3c-5.349-1.479-12.137,2.207-12.137,2.207a24.613,24.613,0,0,0,9.245,6.034,13.08,13.08,0,0,0,9.479-.529l1.111,20.254Z" transform="translate(-10538.314 4056.677)" fill="#fff" stroke="#000" stroke-linecap="round" stroke-linejoin="round" stroke-width="1"/>
      <path id="패스_417" data-name="패스 417" d="M10545.359-4051.326s5.4-.877,8.842,1.847" transform="translate(-10539.288 4057.137)" fill="none" stroke="#000" stroke-linecap="round" stroke-width="1"/>
      <path id="패스_418" data-name="패스 418" d="M8.842.135S3.438-.743,0,1.982" transform="translate(24.38 4.776) rotate(-14)" fill="none" stroke="#000" stroke-linecap="round" stroke-width="1"/>
    </g>
    <g id="사각형_103" data-name="사각형 103" transform="matrix(0.996, 0.087, -0.087, 0.996, 693.644, 245.007)" fill="none" stroke="#fff" stroke-linecap="round" stroke-linejoin="round" stroke-width="3" opacity="0.2">
      <rect width="14.922" height="14.922" stroke="none"/>
      <rect x="1.5" y="1.5" width="11.922" height="11.922" fill="none"/>
    </g>
    <g id="사각형_104" data-name="사각형 104" transform="matrix(0.788, 0.616, -0.616, 0.788, 647.768, 330.249)" fill="none" stroke="#fff" stroke-linecap="round" stroke-linejoin="round" stroke-width="3" opacity="0.2">
      <rect width="10" height="10" stroke="none"/>
      <rect x="1.5" y="1.5" width="7" height="7" fill="none"/>
    </g>
    <g id="사각형_105" data-name="사각형 105" transform="matrix(-0.208, 0.978, -0.978, -0.208, 925.36, 174.608)" fill="none" stroke="#fff" stroke-linecap="round" stroke-linejoin="round" stroke-width="3" opacity="0.2">
      <rect width="14" height="14" stroke="none"/>
      <rect x="1.5" y="1.5" width="11" height="11" fill="none"/>
    </g>
    <g id="사각형_107" data-name="사각형 107" transform="translate(1096.429 204.727) rotate(91)" fill="none" stroke="#fff" stroke-linecap="round" stroke-linejoin="round" stroke-width="3" opacity="0.2">
      <rect width="14" height="14" stroke="none"/>
      <rect x="1.5" y="1.5" width="11" height="11" fill="none"/>
    </g>
    <g id="사각형_108" data-name="사각형 108" transform="translate(721.814 164.359) rotate(-29)" fill="none" stroke="#fff" stroke-linecap="round" stroke-linejoin="round" stroke-width="3" opacity="0.2">
      <rect width="12" height="12" stroke="none"/>
      <rect x="1.5" y="1.5" width="9" height="9" fill="none"/>
    </g>
    <g id="사각형_110" data-name="사각형 110" transform="matrix(0.105, 0.995, -0.995, 0.105, 625.163, 207.208)" fill="none" stroke="#fff" stroke-linecap="round" stroke-linejoin="round" stroke-width="2" opacity="0.2">
      <rect width="8" height="8" stroke="none"/>
      <rect x="1" y="1" width="6" height="6" fill="none"/>
    </g>
    <g id="사각형_111" data-name="사각형 111" transform="matrix(0.105, 0.995, -0.995, 0.105, 1015.207, 163.906)" fill="none" stroke="#fff" stroke-linecap="round" stroke-linejoin="round" stroke-width="2" opacity="0.2">
      <rect width="8" height="8" stroke="none"/>
      <rect x="1" y="1" width="6" height="6" fill="none"/>
    </g>
    <g id="사각형_112" data-name="사각형 112" transform="translate(1184.739 284.67) rotate(149)" fill="none" stroke="#fff" stroke-linecap="round" stroke-linejoin="round" stroke-width="2" opacity="0.2">
      <rect width="8" height="8" stroke="none"/>
      <rect x="1" y="1" width="6" height="6" fill="none"/>
    </g>
    <g id="사각형_113" data-name="사각형 113" transform="translate(1153.855 346.697) rotate(149)" fill="none" stroke="#fff" stroke-linecap="round" stroke-linejoin="round" stroke-width="2" opacity="0.2">
      <rect width="11" height="11" stroke="none"/>
      <rect x="1" y="1" width="9" height="9" fill="none"/>
    </g>
  </g>
</svg>
