<svg xmlns="http://www.w3.org/2000/svg" width="228.85" height="25.822" viewBox="0 0 228.85 25.822">
  <g id="logo" transform="translate(-594.795 -32.128)">
    <g id="logo-2" data-name="logo" transform="translate(594.795 32.128)">
      <g id="group" transform="translate(0 16.983)">
        <g id="group-2" data-name="group">
          <path id="path" d="M0,0,12.991,5.975V8.839L0,2.864Z" fill="#fff"/>
          <path id="path-2" data-name="path" d="M12.991,0,0,5.975V8.839L12.991,2.864Z" transform="translate(12.991)" fill="#fff"/>
        </g>
      </g>
      <g id="group-3" data-name="group" transform="translate(0 11.62)">
        <g id="group-4" data-name="group" transform="translate(0 0)">
          <path id="path-3" data-name="path" d="M0,0,12.991,5.975V8.839L0,2.864Z" fill="#fff"/>
          <path id="path-4" data-name="path" d="M12.991,0,0,5.975V8.839L12.991,2.864Z" transform="translate(12.991)" fill="#fff"/>
        </g>
      </g>
      <g id="group-5" data-name="group">
        <g id="group-6" data-name="group">
          <path id="path-5" data-name="path" d="M12.991,0,0,5.975V8.839L12.991,2.864Z" fill="#fff"/>
          <path id="path-6" data-name="path" d="M0,0,12.991,5.975V8.839L0,2.864Z" transform="translate(12.991)" fill="#fff"/>
        </g>
        <g id="group-7" data-name="group" transform="translate(0 6.033)">
          <path id="path-7" data-name="path" d="M0,0,12.991,5.975V8.839L0,2.864Z" transform="translate(0 0)" fill="#fff"/>
          <path id="path-8" data-name="path" d="M12.991,0,0,5.975V8.839L12.991,2.864Z" transform="translate(12.991 0)" fill="#fff"/>
        </g>
      </g>
    </g>
    <path id="path-9" data-name="path" d="M8.777.246A8.661,8.661,0,0,1,4.453-.791,7.091,7.091,0,0,1,1.611-3.732a9.551,9.551,0,0,1-1-4.506v-.574a9.638,9.638,0,0,1,.967-4.4,7.278,7.278,0,0,1,2.76-3.006A8.055,8.055,0,0,1,8.6-17.309a10.48,10.48,0,0,1,3.252.492,7.989,7.989,0,0,1,2.713,1.5v4.125H12.023l-.352-2.59a4.457,4.457,0,0,0-.844-.48,4.8,4.8,0,0,0-.99-.3,5.951,5.951,0,0,0-1.154-.105,4.307,4.307,0,0,0-2.5.715,4.528,4.528,0,0,0-1.6,2.021,7.875,7.875,0,0,0-.557,3.1v.6a7.57,7.57,0,0,0,.586,3.105A4.658,4.658,0,0,0,6.281-3.1a4.489,4.489,0,0,0,2.555.721,6.641,6.641,0,0,0,1.482-.17,7.434,7.434,0,0,0,1.354-.439l.352-2.4h2.543v4.078A9.547,9.547,0,0,1,12.082-.205,11.363,11.363,0,0,1,8.777.246Zm13.488,0a6.08,6.08,0,0,1-3.223-.82A5.375,5.375,0,0,1,16.98-2.854a7.538,7.538,0,0,1-.715-3.357v-.246A7.51,7.51,0,0,1,16.98-9.8a5.425,5.425,0,0,1,2.057-2.285,5.993,5.993,0,0,1,3.205-.826,6.009,6.009,0,0,1,3.223.826,5.445,5.445,0,0,1,2.051,2.279,7.5,7.5,0,0,1,.715,3.352v.246a7.538,7.538,0,0,1-.715,3.357A5.4,5.4,0,0,1,25.465-.574,6,6,0,0,1,22.266.246Zm0-2.625a2.159,2.159,0,0,0,1.453-.48A2.82,2.82,0,0,0,24.551-4.2a6.747,6.747,0,0,0,.27-2.01v-.246a6.658,6.658,0,0,0-.27-1.986,2.837,2.837,0,0,0-.838-1.348,2.183,2.183,0,0,0-1.471-.486,2.17,2.17,0,0,0-1.453.486,2.778,2.778,0,0,0-.838,1.348,6.8,6.8,0,0,0-.264,1.986v.246A6.947,6.947,0,0,0,19.951-4.2a2.706,2.706,0,0,0,.838,1.342A2.241,2.241,0,0,0,22.266-2.379ZM29.625,0V-2.051L31.277-2.4v-7.863l-1.828-.352V-12.68h5L34.594-11a4.26,4.26,0,0,1,1.529-1.412,4.4,4.4,0,0,1,2.127-.5,3.9,3.9,0,0,1,2.092.539,3.254,3.254,0,0,1,1.307,1.629,4.395,4.395,0,0,1,1.523-1.594,4.134,4.134,0,0,1,2.2-.574,3.677,3.677,0,0,1,2.959,1.277,5.906,5.906,0,0,1,1.084,3.891V-2.4l1.652.352V0H44.52V-2.051L46-2.4V-7.758a3.081,3.081,0,0,0-.463-1.951,1.663,1.663,0,0,0-1.342-.545,2.057,2.057,0,0,0-1.348.451,2.532,2.532,0,0,0-.8,1.189V-2.4l1.383.352V0H37.254V-2.051L38.637-2.4V-7.758a3.09,3.09,0,0,0-.463-1.934,1.666,1.666,0,0,0-1.365-.562,2.543,2.543,0,0,0-1.254.293,2.358,2.358,0,0,0-.867.844V-2.4l1.477.352V0ZM52.09,0V-2.051L53.742-2.4v-7.863l-1.828-.352V-12.68h5L57.059-11a4.26,4.26,0,0,1,1.529-1.412,4.4,4.4,0,0,1,2.127-.5,3.9,3.9,0,0,1,2.092.539,3.254,3.254,0,0,1,1.307,1.629,4.395,4.395,0,0,1,1.523-1.594,4.134,4.134,0,0,1,2.2-.574A3.677,3.677,0,0,1,70.8-11.637a5.906,5.906,0,0,1,1.084,3.891V-2.4l1.652.352V0H66.984V-2.051L68.461-2.4V-7.758A3.081,3.081,0,0,0,68-9.709a1.663,1.663,0,0,0-1.342-.545,2.057,2.057,0,0,0-1.348.451,2.532,2.532,0,0,0-.8,1.189V-2.4l1.383.352V0H59.719V-2.051L61.1-2.4V-7.758a3.09,3.09,0,0,0-.463-1.934,1.666,1.666,0,0,0-1.365-.562,2.543,2.543,0,0,0-1.254.293,2.358,2.358,0,0,0-.867.844V-2.4l1.477.352V0ZM74.578,0V-2.051L76.23-2.4v-7.863L74.4-10.617V-12.68h5.25V-2.4l1.641.352V0Zm1.535-15.363v-2.918h3.539v2.918ZM87.41.246a3.647,3.647,0,0,1-2.725-.973,4.265,4.265,0,0,1-.955-3.082v-6.469H81.984v-2.4H83.73v-3.105h3.41v3.105h2.332v2.4H87.141V-3.82a1.473,1.473,0,0,0,.311,1.055,1.136,1.136,0,0,0,.85.316,4.934,4.934,0,0,0,.609-.041q.328-.041.563-.088l.293,2.473a9.718,9.718,0,0,1-1.143.252A7.58,7.58,0,0,1,87.41.246Zm17.555,0a8.661,8.661,0,0,1-4.324-1.037A7.091,7.091,0,0,1,97.8-3.732a9.551,9.551,0,0,1-1-4.506v-.574a9.638,9.638,0,0,1,.967-4.4,7.278,7.278,0,0,1,2.76-3.006,8.055,8.055,0,0,1,4.266-1.09,10.48,10.48,0,0,1,3.252.492,7.989,7.989,0,0,1,2.713,1.5v4.125h-2.543l-.352-2.59a4.457,4.457,0,0,0-.844-.48,4.8,4.8,0,0,0-.99-.3,5.951,5.951,0,0,0-1.154-.105,4.307,4.307,0,0,0-2.5.715,4.528,4.528,0,0,0-1.6,2.021,7.875,7.875,0,0,0-.557,3.1v.6a7.57,7.57,0,0,0,.586,3.105A4.658,4.658,0,0,0,102.469-3.1a4.489,4.489,0,0,0,2.555.721,6.641,6.641,0,0,0,1.482-.17,7.434,7.434,0,0,0,1.354-.439l.352-2.4h2.543v4.078A9.547,9.547,0,0,1,108.27-.205,11.363,11.363,0,0,1,104.965.246ZM112.219,0V-2.051l1.652-.352V-15.867l-1.828-.352v-2.062h5.238v7.219a4.262,4.262,0,0,1,1.482-1.365,4.1,4.1,0,0,1,2.01-.486,3.831,3.831,0,0,1,3.029,1.271,5.833,5.833,0,0,1,1.119,3.932V-2.4l1.641.352V0h-6.539V-2.051L121.5-2.4V-7.734a2.9,2.9,0,0,0-.516-1.945,1.927,1.927,0,0,0-1.512-.574,2.754,2.754,0,0,0-1.26.287,2.4,2.4,0,0,0-.932.838V-2.4l1.477.352V0Zm21.4.246a6.129,6.129,0,0,1-3.176-.8,5.506,5.506,0,0,1-2.1-2.209,6.761,6.761,0,0,1-.744-3.211v-.469a7.616,7.616,0,0,1,.7-3.346,5.561,5.561,0,0,1,1.986-2.3,5.347,5.347,0,0,1,3.029-.826,5.688,5.688,0,0,1,2.895.68,4.381,4.381,0,0,1,1.781,1.957,7.139,7.139,0,0,1,.609,3.094V-5.32h-7.453l-.023.07a3.808,3.808,0,0,0,.416,1.482,2.535,2.535,0,0,0,.979,1.02,3,3,0,0,0,1.535.369,6.166,6.166,0,0,0,1.752-.24,6.735,6.735,0,0,0,1.588-.709l.926,2.109A6.585,6.585,0,0,1,136.342-.17,8.233,8.233,0,0,1,133.617.246Zm-2.449-7.828h4.23v-.3a3.854,3.854,0,0,0-.205-1.33,1.725,1.725,0,0,0-.656-.861,2.044,2.044,0,0,0-1.166-.3,1.838,1.838,0,0,0-1.148.357,2.356,2.356,0,0,0-.732.979,5.15,5.15,0,0,0-.357,1.406ZM146.145.246a5.9,5.9,0,0,1-3.158-.82,5.426,5.426,0,0,1-2.045-2.268,7.38,7.38,0,0,1-.715-3.311V-6.5a7.271,7.271,0,0,1,.727-3.316A5.567,5.567,0,0,1,143-12.088a5.767,5.767,0,0,1,3.117-.826,7.411,7.411,0,0,1,2.947.533,7.207,7.207,0,0,1,2.01,1.236l-.023,3.633h-2.578l-.457-2.262a2.124,2.124,0,0,0-.715-.457,2.321,2.321,0,0,0-.879-.176,2.489,2.489,0,0,0-1.553.469,2.785,2.785,0,0,0-.92,1.336,6.36,6.36,0,0,0-.3,2.1v.352a5.745,5.745,0,0,0,.34,2.139,2.691,2.691,0,0,0,.908,1.236,2.164,2.164,0,0,0,1.271.4,2.125,2.125,0,0,0,1.447-.475,2.5,2.5,0,0,0,.756-1.342h2.918l.035.07a6.256,6.256,0,0,1-.791,2.332,3.9,3.9,0,0,1-1.664,1.512A6.168,6.168,0,0,1,146.145.246ZM152.672,0V-2.051l1.652-.352V-15.867l-1.828-.352v-2.062h5.238V-2.4l1.477.352V0Zm8.074,0V-1.945l.961-.223-.023-.047-2.508-3.41,2.18-2.238,4.16,5.449,1.57.363V0Zm-3.375-3.469-1.641-1.91,5.508-5.039.023-.035-1.3-.187V-12.68h6.6v2.063l-1.641.41ZM173.719.246a6.129,6.129,0,0,1-3.176-.8,5.506,5.506,0,0,1-2.1-2.209,6.761,6.761,0,0,1-.744-3.211v-.469a7.616,7.616,0,0,1,.7-3.346,5.561,5.561,0,0,1,1.986-2.3,5.347,5.347,0,0,1,3.029-.826,5.688,5.688,0,0,1,2.895.68,4.381,4.381,0,0,1,1.781,1.957,7.139,7.139,0,0,1,.609,3.094V-5.32h-7.453l-.023.07a3.808,3.808,0,0,0,.416,1.482,2.535,2.535,0,0,0,.979,1.02,3,3,0,0,0,1.535.369,6.166,6.166,0,0,0,1.752-.24,6.735,6.735,0,0,0,1.588-.709l.926,2.109A6.585,6.585,0,0,1,176.443-.17,8.233,8.233,0,0,1,173.719.246ZM171.27-7.582h4.23v-.3a3.854,3.854,0,0,0-.205-1.33,1.725,1.725,0,0,0-.656-.861,2.044,2.044,0,0,0-1.166-.3,1.838,1.838,0,0,0-1.148.357,2.356,2.356,0,0,0-.732.979,5.15,5.15,0,0,0-.357,1.406ZM180.539,0V-2.051L182.18-2.4v-7.863l-1.816-.352V-12.68h5l.129,1.57.023.281a3.978,3.978,0,0,1,1.16-1.559,2.645,2.645,0,0,1,1.652-.527,4.676,4.676,0,0,1,.668.053,4.759,4.759,0,0,1,.645.135l-.363,3.152-1.7-.094a2.009,2.009,0,0,0-1.178.246,2.685,2.685,0,0,0-.8.809V-2.4l1.641.352V0Z" transform="translate(634 54.057)" fill="#fff"/>
  </g>
</svg>
