<svg xmlns="http://www.w3.org/2000/svg" width="272.114" height="184.755" viewBox="0 0 272.114 184.755">
  <g id="notification" transform="translate(-821.313 -822.745)">
    <g id="그룹_108" data-name="그룹 108" transform="translate(-53.547 3)">
      <g id="사각형_115" data-name="사각형 115" transform="translate(891 905)" fill="#fff" stroke="#000" stroke-linecap="round" stroke-linejoin="round" stroke-width="5">
        <rect width="140" height="73" stroke="none"/>
        <rect x="-2.5" y="-2.5" width="145" height="78" fill="none"/>
      </g>
      <g id="합치기_5" data-name="합치기 5" transform="translate(10392.453 -3383)">
        <path d="M -9405.2265625 4386.5 L -9455.677734375 4386.5 C -9456.380859375 4386.5 -9456.953125 4385.9287109375 -9456.953125 4385.2265625 C -9456.953125 4383.2197265625 -9455.3212890625 4381.58740234375 -9453.314453125 4381.58740234375 L -9445.453125 4381.58740234375 L -9444.953125 4381.58740234375 L -9444.953125 4381.08740234375 L -9444.953125 4370.50048828125 L -9415.9521484375 4370.50048828125 L -9415.9521484375 4381.08740234375 L -9415.9521484375 4381.58740234375 L -9415.4521484375 4381.58740234375 L -9407.5908203125 4381.58740234375 C -9405.5859375 4381.58740234375 -9403.9541015625 4383.2197265625 -9403.9541015625 4385.2265625 C -9403.9541015625 4385.9287109375 -9404.525390625 4386.5 -9405.2265625 4386.5 Z" stroke="none"/>
        <path d="M -9405.2265625 4386 C -9404.80078125 4386 -9404.4541015625 4385.65283203125 -9404.4541015625 4385.2265625 C -9404.4541015625 4383.49560546875 -9405.861328125 4382.08740234375 -9407.5908203125 4382.08740234375 L -9415.4521484375 4382.08740234375 L -9416.4521484375 4382.08740234375 L -9416.4521484375 4381.08740234375 L -9416.4521484375 4371.00048828125 L -9444.453125 4371.00048828125 L -9444.453125 4381.08740234375 L -9444.453125 4382.08740234375 L -9445.453125 4382.08740234375 L -9453.314453125 4382.08740234375 C -9455.044921875 4382.08740234375 -9456.453125 4383.49560546875 -9456.453125 4385.2265625 C -9456.453125 4385.65283203125 -9456.10546875 4386 -9455.677734375 4386 L -9405.2265625 4386 M -9405.2265625 4387 L -9455.677734375 4387 C -9456.658203125 4387 -9457.453125 4386.20703125 -9457.453125 4385.2265625 C -9457.453125 4382.94091796875 -9455.599609375 4381.08740234375 -9453.314453125 4381.08740234375 L -9445.453125 4381.08740234375 L -9445.453125 4370.00048828125 L -9415.4521484375 4370.00048828125 L -9415.4521484375 4381.08740234375 L -9407.5908203125 4381.08740234375 C -9405.3076171875 4381.08740234375 -9403.4541015625 4382.94091796875 -9403.4541015625 4385.2265625 C -9403.4541015625 4386.20703125 -9404.2470703125 4387 -9405.2265625 4387 Z" stroke="none" fill="#000"/>
      </g>
      <g id="사각형_116" data-name="사각형 116" transform="translate(887 981)" fill="#fff" stroke="#000" stroke-linecap="round" stroke-linejoin="round" stroke-width="1">
        <path d="M0,0H148a0,0,0,0,1,0,0V7a3,3,0,0,1-3,3H3A3,3,0,0,1,0,7V0A0,0,0,0,1,0,0Z" stroke="none"/>
        <path d="M0-.5H148a.5.5,0,0,1,.5.5V7a3.5,3.5,0,0,1-3.5,3.5H3A3.5,3.5,0,0,1-.5,7V0A.5.5,0,0,1,0-.5Z" fill="none"/>
      </g>
      <g id="그룹_102" data-name="그룹 102" transform="translate(0 4)">
        <rect id="사각형_120" data-name="사각형 120" width="6" height="6" rx="1" transform="translate(919 941)"/>
        <rect id="사각형_121" data-name="사각형 121" width="6" height="6" rx="1" transform="translate(919 949)"/>
        <rect id="사각형_120-2" data-name="사각형 120" width="6" height="6" rx="1" transform="translate(927 941)"/>
        <rect id="사각형_121-2" data-name="사각형 121" width="6" height="6" rx="1" transform="translate(927 949)"/>
        <rect id="사각형_120-3" data-name="사각형 120" width="6" height="6" rx="1" transform="translate(935 941)"/>
        <rect id="사각형_121-3" data-name="사각형 121" width="6" height="6" rx="1" transform="translate(935 949)"/>
        <rect id="사각형_120-4" data-name="사각형 120" width="6" height="6" rx="1" transform="translate(943 941)"/>
        <rect id="사각형_121-4" data-name="사각형 121" width="6" height="6" rx="1" transform="translate(943 949)"/>
        <rect id="사각형_120-5" data-name="사각형 120" width="6" height="6" rx="1" transform="translate(951 941)"/>
        <rect id="사각형_121-5" data-name="사각형 121" width="6" height="6" rx="1" transform="translate(951 949)"/>
        <rect id="사각형_120-6" data-name="사각형 120" width="6" height="6" rx="1" transform="translate(959 941)"/>
        <rect id="사각형_121-6" data-name="사각형 121" width="6" height="6" rx="1" transform="translate(959 949)"/>
        <rect id="사각형_120-7" data-name="사각형 120" width="6" height="6" rx="1" transform="translate(967 941)"/>
        <rect id="사각형_121-7" data-name="사각형 121" width="6" height="6" rx="1" transform="translate(967 949)"/>
        <rect id="사각형_120-8" data-name="사각형 120" width="6" height="6" rx="1" transform="translate(975 941)"/>
        <rect id="사각형_121-8" data-name="사각형 121" width="6" height="6" rx="1" transform="translate(975 949)"/>
        <rect id="사각형_120-9" data-name="사각형 120" width="6" height="6" rx="1" transform="translate(919 957)"/>
        <rect id="사각형_120-10" data-name="사각형 120" width="6" height="6" rx="1" transform="translate(927 957)"/>
        <rect id="사각형_120-11" data-name="사각형 120" width="6" height="6" rx="1" transform="translate(935 957)"/>
        <rect id="사각형_120-12" data-name="사각형 120" width="6" height="6" rx="1" transform="translate(943 957)"/>
        <rect id="사각형_120-13" data-name="사각형 120" width="6" height="6" rx="1" transform="translate(951 957)"/>
        <rect id="사각형_120-14" data-name="사각형 120" width="6" height="6" rx="1" transform="translate(959 957)"/>
        <rect id="사각형_120-15" data-name="사각형 120" width="6" height="6" rx="1" transform="translate(967 957)"/>
        <rect id="사각형_120-16" data-name="사각형 120" width="6" height="6" rx="1" transform="translate(975 957)"/>
        <rect id="사각형_120-17" data-name="사각형 120" width="6" height="6" rx="1" transform="translate(983 941)"/>
        <rect id="사각형_121-9" data-name="사각형 121" width="6" height="6" rx="1" transform="translate(983 949)"/>
        <rect id="사각형_120-18" data-name="사각형 120" width="6" height="6" rx="1" transform="translate(991 941)"/>
        <rect id="사각형_121-10" data-name="사각형 121" width="6" height="6" rx="1" transform="translate(991 949)"/>
        <rect id="사각형_120-19" data-name="사각형 120" width="6" height="6" rx="1" transform="translate(999 941)"/>
        <rect id="사각형_121-11" data-name="사각형 121" width="6" height="6" rx="1" transform="translate(999 949)"/>
        <rect id="사각형_120-20" data-name="사각형 120" width="6" height="6" rx="1" transform="translate(983 957)"/>
        <rect id="사각형_120-21" data-name="사각형 120" width="6" height="6" rx="1" transform="translate(991 957)"/>
        <g id="사각형_120-22" data-name="사각형 120" transform="translate(999 957)" fill="none" stroke="#000" stroke-linecap="round" stroke-width="0.7">
          <rect width="6" height="6" rx="1" stroke="none"/>
          <rect x="0.35" y="0.35" width="5.3" height="5.3" rx="0.65" fill="none"/>
        </g>
      </g>
      <circle id="타원_24" data-name="타원 24" cx="2.5" cy="2.5" r="2.5" transform="translate(959 984)"/>
      <rect id="사각형_123" data-name="사각형 123" width="51" height="6" rx="2" transform="translate(935 921)" fill="#e9e9e9"/>
      <rect id="사각형_124" data-name="사각형 124" width="70" height="4" rx="1.5" transform="translate(935 930)" fill="#e9e9e9"/>
      <circle id="타원_25" data-name="타원 25" cx="5" cy="5" r="5" transform="translate(921 921)" fill="#e9e9e9"/>
    </g>
    <g id="종이비행기" transform="translate(-110.525 465.012) rotate(-9)">
      <g id="그룹_5" data-name="그룹 5" transform="matrix(0.966, 0.259, -0.259, 0.966, 1079.684, 607.995)">
        <path id="패스_257" data-name="패스 257" d="M2.995,12.863C3.85,12.863,35.071.519,35.071.519L0,1.672Z" transform="translate(7.019 6.834)" fill="#fff" stroke="#000" stroke-linecap="round" stroke-linejoin="round" stroke-width="1"/>
        <path id="패스_255" data-name="패스 255" d="M2.919-1.3c.848,0,32.056,8.568,32.056,8.568l-20.793.76L0,8.506Z" transform="translate(7.019)" fill="#fff" stroke="#000" stroke-linecap="round" stroke-linejoin="round" stroke-width="1"/>
        <path id="패스_256" data-name="패스 256" d="M-.542,10.085c.848,0,42.524-9.525,42.524-9.525L7.019,1.672Z" transform="translate(0 6.834)" fill="#fff" stroke="#000" stroke-linecap="round" stroke-linejoin="round" stroke-width="1"/>
      </g>
      <path id="패스_258" data-name="패스 258" d="M1021.589,615.669s7.717-30.107,39.613-45.326,68.21,8.742,56.449,44.026,35.283,34.723,35.283,34.723" transform="translate(-76 -32.41)" fill="none" stroke="#000" stroke-width="1" stroke-dasharray="10 7"/>
    </g>
    <g id="그룹_26" data-name="그룹 26" transform="translate(-3336.917 -874.996)">
      <g id="사각형_125" data-name="사각형 125" transform="translate(4369.37 1877.083)" stroke="#000" stroke-width="1">
        <path d="M4.3,0h7.4A4.3,4.3,0,0,1,16,4.3v0a.614.614,0,0,1-.614.614H.614A.614.614,0,0,1,0,4.3v0A4.3,4.3,0,0,1,4.3,0Z" stroke="none"/>
        <path d="M4.134.5h7.733A3.634,3.634,0,0,1,15.5,4.134v0a.28.28,0,0,1-.28.28H.78a.28.28,0,0,1-.28-.28v0A3.634,3.634,0,0,1,4.134.5Z" fill="none"/>
      </g>
      <path id="패스_42" data-name="패스 42" d="M13.31,0A13.31,13.31,0,0,1,26.62,13.31H0A13.31,13.31,0,0,1,13.31,0Z" transform="translate(4346.276 1810.339) rotate(45)"/>
      <path id="패스_44" data-name="패스 44" d="M3.276,0C5.085,0,6.552,1.066,6.552,2.381H0C0,1.066,1.467,0,3.276,0Z" transform="translate(4366.389 1819.512) rotate(116)"/>
      <path id="패스_43" data-name="패스 43" d="M18.032,17.136,12.281,0H5.194L0,17.136Z" transform="translate(4358.844 1803.791) rotate(45)"/>
      <rect id="사각형_43" data-name="사각형 43" width="39.521" height="3.123" transform="matrix(0.875, 0.485, -0.485, 0.875, 4360.439, 1818.468)"/>
      <rect id="사각형_44" data-name="사각형 44" width="37.235" height="1.96" transform="translate(4375.686 1872.311) rotate(-64)"/>
      <rect id="사각형_45" data-name="사각형 45" width="37.072" height="0.98" transform="matrix(0.375, -0.927, 0.927, 0.375, 4380.209, 1874.036)"/>
      <circle id="타원_7" data-name="타원 7" cx="3" cy="3" r="3" transform="translate(4390.917 1836.217)"/>
      <path id="패스_45" data-name="패스 45" d="M5163.413,2178.662l-5.676-2.746-1.52,6.41h7.463Z" transform="translate(-782.266 -304.33)"/>
    </g>
    <path id="패스_432" data-name="패스 432" d="M10351.762-3355.695h259.594" transform="translate(-9529.948 4362.695)" fill="none" stroke="#000" stroke-linecap="round" stroke-width="1"/>
  </g>
</svg>
